<?xml version="1.0" standalone="no"?>
<!DOCTYPE svg PUBLIC "-//W3C//DTD SVG 20010904//EN"
 "http://www.w3.org/TR/2001/REC-SVG-20010904/DTD/svg10.dtd">
<svg version="1.0" xmlns="http://www.w3.org/2000/svg"
 width="513.000000pt" height="513.000000pt" viewBox="0 0 513.000000 513.000000"
 preserveAspectRatio="xMidYMid meet">
<metadata>
Created by potrace 1.14, written by Peter Selinger 2001-2017
</metadata>
<g transform="translate(0.000000,513.000000) scale(0.100000,-0.100000)"
fill="#000000" stroke="none">
<path d="M2676 4708 c-22 -89 -40 -167 -42 -173 -1 -5 -16 -66 -32 -135 -17
-69 -67 -278 -112 -465 -44 -186 -83 -341 -85 -343 -4 -4 -5 -2 -165 258 -62
102 -154 253 -205 335 -51 83 -136 222 -190 310 -54 88 -111 181 -128 207 -33
52 -29 52 -107 3 -19 -13 -159 -98 -310 -190 -151 -93 -277 -169 -279 -171 -2
-2 6 -18 17 -36 34 -57 544 -892 561 -918 46 -72 130 -214 128 -216 -1 -2 -76
15 -167 38 -91 22 -172 41 -180 43 -8 2 -197 47 -420 100 -223 54 -430 103
-460 110 -30 8 -57 12 -59 10 -3 -4 -84 -333 -96 -395 -3 -14 -24 -102 -48
-197 l-42 -172 45 -11 c25 -7 52 -13 60 -15 18 -4 180 -43 380 -91 80 -20 152
-37 160 -39 8 -2 101 -24 205 -49 105 -25 239 -57 300 -72 60 -14 116 -29 123
-33 9 -5 -37 -38 -135 -98 -81 -49 -249 -152 -373 -228 -473 -290 -537 -329
-587 -359 -33 -20 -51 -36 -48 -45 3 -7 47 -81 99 -165 51 -83 140 -227 198
-321 57 -93 108 -169 112 -168 4 0 127 75 273 165 146 89 284 173 306 186 22
13 66 40 98 60 31 20 70 44 86 53 15 9 61 38 101 63 41 25 75 46 77 46 2 0 49
29 106 65 56 36 106 65 111 65 5 0 7 -8 4 -17 -5 -17 -85 -342 -91 -373 -2 -8
-20 -82 -40 -165 -42 -171 -38 -158 -60 -250 -9 -38 -38 -162 -66 -274 -27
-112 -48 -205 -47 -206 4 -3 190 -48 208 -51 8 -1 128 -29 265 -63 138 -33
260 -63 272 -66 25 -6 21 -14 57 135 14 58 39 164 56 235 18 72 33 137 35 145
2 8 24 101 49 205 53 220 107 443 111 465 2 8 8 35 15 58 l11 44 28 -44 c23
-37 312 -510 344 -562 7 -11 28 -45 47 -75 19 -31 40 -65 46 -76 12 -22 217
-357 240 -393 11 -16 19 -20 27 -14 12 10 461 287 522 322 17 9 53 31 82 49
l52 32 -43 72 c-24 40 -130 214 -236 387 -189 309 -229 374 -364 594 -37 60
-65 111 -62 113 2 2 53 -7 113 -22 128 -31 849 -203 878 -210 11 -2 23 -5 27
-6 4 -1 65 -16 135 -34 l128 -31 16 65 c14 56 78 325 85 356 1 6 21 86 43 179
23 93 40 170 39 171 -2 1 -235 57 -518 124 -283 68 -573 138 -644 155 l-129
32 554 339 c305 186 568 348 585 359 l31 21 -98 160 c-54 88 -103 165 -109
172 -5 7 -10 14 -10 17 0 11 -192 316 -199 316 -3 0 -23 -11 -43 -25 -19 -13
-87 -55 -149 -93 -63 -38 -204 -124 -314 -192 -110 -67 -292 -179 -405 -248
-113 -69 -216 -132 -229 -141 l-24 -16 7 35 c4 19 9 42 11 50 52 214 116 482
120 500 2 8 8 35 15 60 7 25 14 55 16 68 4 19 75 314 126 525 13 53 8 63 -37
70 -16 3 -127 29 -245 57 -349 85 -413 100 -445 106 l-30 6 -39 -164z"/>
</g>
</svg>
